<?xml version="1.0" encoding="UTF-8" standalone="no"?>
<!-- Created with Inkscape (http://www.inkscape.org/) -->

<svg
   xmlns:dc="http://purl.org/dc/elements/1.1/"
   xmlns:cc="http://creativecommons.org/ns#"
   xmlns:rdf="http://www.w3.org/1999/02/22-rdf-syntax-ns#"
   xmlns:svg="http://www.w3.org/2000/svg"
   xmlns="http://www.w3.org/2000/svg"
   xmlns:sodipodi="http://sodipodi.sourceforge.net/DTD/sodipodi-0.dtd"
   xmlns:inkscape="http://www.inkscape.org/namespaces/inkscape"
   width="53.588104mm"
   height="40.550495mm"
   viewBox="0 0 53.588105 40.550495"
   version="1.1"
   id="svg3205"
   inkscape:version="0.92.3 (2405546, 2018-03-11)"
   sodipodi:docname="boom.svg">
  <defs
     id="defs3199">
    <clipPath
       clipPathUnits="userSpaceOnUse"
       id="clipPath951">
      <path
         d="m 85.576,421.992 -35,23.333 -2.959,-111.218 18.954,68.551 33.803,-21.076 25.905,52.673 -31.037,24.403 z"
         id="path949"
         inkscape:connector-curvature="0" />
    </clipPath>
    <linearGradient
       x1="0"
       y1="0"
       x2="1"
       y2="0"
       gradientUnits="userSpaceOnUse"
       gradientTransform="matrix(83.500298,72.500275,72.500275,-83.500298,72.498448,339.04537)"
       spreadMethod="pad"
       id="linearGradient967">
      <stop
         style="stop-opacity:1;stop-color:#ffe027"
         offset="0"
         id="stop957" />
      <stop
         style="stop-opacity:1;stop-color:#ffe027"
         offset="0.209677"
         id="stop959" />
      <stop
         style="stop-opacity:1;stop-color:#ffe027"
         offset="0.31541043"
         id="stop961" />
      <stop
         style="stop-opacity:1;stop-color:#ff336d"
         offset="0.887097"
         id="stop963" />
      <stop
         style="stop-opacity:1;stop-color:#ff336d"
         offset="1"
         id="stop965" />
    </linearGradient>
    <clipPath
       clipPathUnits="userSpaceOnUse"
       id="clipPath1217">
      <path
         d="m 301.699,445.834 h 95.977 v -41.501 h -95.977 z"
         id="path1215"
         inkscape:connector-curvature="0" />
    </clipPath>
    <clipPath
       clipPathUnits="userSpaceOnUse"
       id="clipPath1261">
      <path
         d="m 353.985,467.645 h 22.588 v -22.586 h -22.588 z"
         id="path1259"
         inkscape:connector-curvature="0" />
    </clipPath>
    <clipPath
       clipPathUnits="userSpaceOnUse"
       id="clipPath1277">
      <path
         d="m 322.708,451.155 h 13.615 v -13.616 h -13.615 z"
         id="path1275"
         inkscape:connector-curvature="0" />
    </clipPath>
    <clipPath
       clipPathUnits="userSpaceOnUse"
       id="clipPath1293">
      <path
         d="m 354.447,413.487 h 11.154 v -11.156 h -11.154 z"
         id="path1291"
         inkscape:connector-curvature="0" />
    </clipPath>
  </defs>
  <sodipodi:namedview
     id="base"
     pagecolor="#ffffff"
     bordercolor="#666666"
     borderopacity="1.0"
     inkscape:pageopacity="0.0"
     inkscape:pageshadow="2"
     inkscape:zoom="0.35"
     inkscape:cx="-676.094"
     inkscape:cy="-77.826359"
     inkscape:document-units="mm"
     inkscape:current-layer="layer1"
     showgrid="false"
     fit-margin-top="1"
     fit-margin-left="1"
     fit-margin-right="1"
     fit-margin-bottom="1"
     inkscape:window-width="1853"
     inkscape:window-height="1025"
     inkscape:window-x="67"
     inkscape:window-y="27"
     inkscape:window-maximized="1" />
  <metadata
     id="metadata3202">
    <rdf:RDF>
      <cc:Work
         rdf:about="">
        <dc:format>image/svg+xml</dc:format>
        <dc:type
           rdf:resource="http://purl.org/dc/dcmitype/StillImage" />
        <dc:title></dc:title>
      </cc:Work>
    </rdf:RDF>
  </metadata>
  <g
     inkscape:label="Capa 1"
     inkscape:groupmode="layer"
     id="layer1"
     transform="translate(-112.73737,-87.691276)">
    <g
       id="g3083"
       transform="matrix(0.35277777,0,0,-0.35277777,11.783605,256.37865)">
      <g
         transform="translate(407.7666,410.0103)"
         id="g1203">
        <path
           inkscape:connector-curvature="0"
           id="path1205"
           style="fill:#ec008c;fill-opacity:1;fill-rule:nonzero;stroke:none"
           d="M 0,0 -10.063,-18.916 -24.058,-5.243 C -3.375,8.204 7.791,27.352 1.913,42.513 c -7.428,19.159 -39.25,24.688 -71.074,12.348 -31.823,-12.34 -51.6,-37.873 -44.171,-57.032 6.884,-17.755 34.719,-23.792 64.09,-14.763 l 44.523,-22.652 7,16.799 21.416,-17.55 z" />
      </g>
      <g
         transform="translate(347.0928,470.3423)"
         id="g1207">
        <path
           inkscape:connector-curvature="0"
           id="path1209"
           style="fill:#f7941e;fill-opacity:1;fill-rule:nonzero;stroke:none"
           d="m 0,0 -0.371,1.309 c 0.883,0.25 1.767,0.487 2.646,0.712 L 2.612,0.702 C 1.741,0.48 0.871,0.246 0,0 M 7.885,1.896 C 7.009,1.722 6.128,1.535 5.24,1.334 L 4.941,2.662 C 5.84,2.865 6.734,3.056 7.622,3.23 Z m -13.049,-3.504 -0.44,1.289 c 0.87,0.294 1.738,0.577 2.608,0.847 l 0.404,-1.298 c -0.859,-0.268 -1.717,-0.546 -2.572,-0.838 m 18.38,4.404 C 12.33,2.673 11.439,2.534 10.543,2.384 l -0.225,1.341 c 0.908,0.155 1.813,0.295 2.709,0.42 z m -23.458,-6.275 -0.503,1.264 0.866,0.34 c 0.563,0.219 1.128,0.433 1.693,0.641 l 0.472,-1.278 c -0.559,-0.205 -1.117,-0.416 -1.675,-0.632 z m 28.83,6.864 C 17.697,3.313 16.801,3.229 15.9,3.132 l -0.15,1.352 c 0.917,0.101 1.828,0.186 2.73,0.256 z m -33.808,-8.991 -0.567,1.238 c 0.828,0.379 1.664,0.748 2.508,1.107 l 0.535,-1.25 c -0.832,-0.354 -1.658,-0.721 -2.476,-1.095 m 39.2,9.239 C 23.091,3.619 22.189,3.595 21.282,3.552 l -0.062,1.36 c 0.923,0.042 1.837,0.068 2.743,0.08 z m -44.06,-11.619 -0.631,1.207 c 0.807,0.422 1.623,0.834 2.446,1.238 l 0.6,-1.224 c -0.814,-0.397 -1.618,-0.804 -2.415,-1.221 M 29.374,3.509 C 28.485,3.562 27.588,3.599 26.68,3.62 l 0.031,1.361 c 0.924,-0.022 1.84,-0.058 2.744,-0.114 z M -24.805,-10.62 -25.5,-9.449 c 0.781,0.464 1.574,0.92 2.376,1.367 l 0.663,-1.189 c -0.792,-0.442 -1.573,-0.889 -2.344,-1.349 M 34.736,2.975 c -0.879,0.123 -1.771,0.23 -2.673,0.318 l 0.133,1.356 c 0.924,-0.09 1.833,-0.201 2.732,-0.328 z m -64.109,-16.486 -0.762,1.129 c 0.756,0.508 1.522,1.009 2.297,1.5 l 0.729,-1.15 c -0.764,-0.484 -1.52,-0.976 -2.264,-1.479 M 40.023,1.983 c -0.861,0.205 -1.748,0.393 -2.63,0.559 l 0.25,1.337 c 0.904,-0.169 1.812,-0.36 2.693,-0.57 z m -73.784,-18.646 -0.828,1.079 c 0.722,0.554 1.456,1.099 2.203,1.636 l 0.795,-1.106 c -0.735,-0.527 -1.459,-1.063 -2.17,-1.609 M 45.181,0.48 c -0.826,0.29 -1.684,0.564 -2.556,0.819 l 0.379,1.306 c 0.894,-0.259 1.779,-0.542 2.627,-0.839 z m -83.121,-20.563 -0.896,1.024 c 0.684,0.598 1.384,1.191 2.096,1.774 l 0.861,-1.054 c -0.699,-0.574 -1.389,-1.155 -2.061,-1.744 m -3.934,-3.69 -0.967,0.956 c 0.641,0.647 1.298,1.286 1.97,1.917 l 0.931,-0.995 c -0.662,-0.619 -1.304,-1.245 -1.934,-1.878 m 91.989,22.177 c -0.781,0.389 -1.599,0.764 -2.434,1.113 l 0.526,1.256 c 0.862,-0.361 1.707,-0.749 2.515,-1.15 z m -95.633,-26.15 -1.04,0.88 c 0.589,0.693 1.197,1.381 1.82,2.061 l 1.002,-0.921 c -0.612,-0.667 -1.205,-1.34 -1.782,-2.02 M 54.715,-4.308 c -0.723,0.499 -1.479,0.984 -2.25,1.439 l 0.691,1.173 c 0.801,-0.471 1.586,-0.974 2.336,-1.494 z M -48.818,-32 l -1.112,0.786 c 0.506,0.716 1.036,1.431 1.588,2.146 l 0.589,-0.352 0.495,-0.471 c -0.549,-0.709 -1.066,-1.408 -1.56,-2.109 M 58.81,-7.698 c -0.621,0.613 -1.285,1.213 -1.974,1.781 l 0.867,1.05 c 0.718,-0.594 1.414,-1.223 2.065,-1.864 z m -110.509,-28.836 -1.186,0.667 c 0.444,0.789 0.921,1.584 1.42,2.365 l 1.148,-0.73 c -0.484,-0.762 -0.95,-1.537 -1.382,-2.302 m 113.906,24.768 c -0.489,0.718 -1.027,1.431 -1.6,2.116 l 1.048,0.873 c 0.601,-0.722 1.163,-1.468 1.678,-2.224 z m -116.261,-29.584 -1.258,0.521 c 0.347,0.836 0.73,1.684 1.141,2.519 l 1.222,-0.6 c -0.398,-0.809 -0.769,-1.631 -1.105,-2.44 m 118.769,24.926 c -0.333,0.811 -0.714,1.617 -1.133,2.396 l 1.197,0.643 c 0.442,-0.818 0.844,-1.668 1.198,-2.521 z m -120.466,-29.989 -1.319,0.337 c 0.224,0.881 0.49,1.774 0.785,2.657 l 1.291,-0.434 c -0.285,-0.851 -0.54,-1.713 -0.757,-2.56 m 123.292,25.155 -1.34,-0.243 c -0.084,0.478 -0.183,0.951 -0.297,1.422 -0.093,0.388 -0.197,0.772 -0.31,1.157 l 1.307,0.381 c 0.119,-0.405 0.226,-0.812 0.325,-1.219 0.12,-0.496 0.225,-0.995 0.315,-1.498 m -124.18,-30.404 -1.355,0.109 c 0.074,0.909 0.189,1.837 0.346,2.759 l 1.343,-0.228 c -0.151,-0.881 -0.263,-1.77 -0.334,-2.64 m 124.613,24.851 -1.361,0.028 c 0.018,0.886 -0.008,1.777 -0.074,2.655 l 1.357,0.103 c 0.071,-0.921 0.096,-1.858 0.078,-2.786 m -124.537,-30.157 -1.353,-0.152 c -0.104,0.917 -0.162,1.852 -0.174,2.783 l 1.361,0.02 c 0.012,-0.889 0.069,-1.781 0.166,-2.651 m 123.926,24.637 -1.332,0.266 c 0.172,0.877 0.31,1.762 0.407,2.631 l 1.353,-0.151 c -0.102,-0.906 -0.244,-1.83 -0.428,-2.746 M -56.73,-62.565 c -0.229,0.69 -0.428,1.395 -0.597,2.096 -0.048,0.198 -0.095,0.396 -0.138,0.596 l 1.332,0.29 c 0.04,-0.19 0.084,-0.379 0.129,-0.566 0.16,-0.666 0.352,-1.336 0.566,-1.993 z m 122.605,24.899 -1.283,0.46 c 0.304,0.849 0.579,1.705 0.814,2.546 l 1.311,-0.368 c -0.244,-0.871 -0.528,-1.761 -0.842,-2.638 M -54.453,-67.651 c -0.463,0.8 -0.892,1.637 -1.272,2.482 l 1.245,0.558 c 0.359,-0.805 0.765,-1.597 1.207,-2.359 z m 118.125,24.915 -1.213,0.618 c 0.406,0.799 0.793,1.614 1.145,2.423 l 1.248,-0.542 c -0.365,-0.836 -0.76,-1.676 -1.18,-2.499 M -51.19,-72.162 c -0.618,0.696 -1.205,1.428 -1.745,2.171 l 1.102,0.8 c 0.515,-0.708 1.072,-1.404 1.661,-2.068 z m 112.092,24.658 -1.14,0.746 c 0.494,0.751 0.968,1.521 1.412,2.284 l 1.178,-0.683 c -0.456,-0.786 -0.946,-1.573 -1.45,-2.347 m -108.043,-28.46 c -0.736,0.581 -1.447,1.189 -2.11,1.81 l 0.932,0.994 c 0.632,-0.594 1.314,-1.177 2.02,-1.733 z m 104.815,23.998 -1.064,0.849 c 0.564,0.711 1.108,1.426 1.628,2.142 l 1.102,-0.8 c -0.534,-0.734 -1.088,-1.465 -1.666,-2.191 M -42.523,-79.025 c -0.809,0.453 -1.606,0.938 -2.366,1.439 l 0.75,1.137 c 0.733,-0.487 1.5,-0.953 2.28,-1.391 z m 96.597,22.904 -0.993,0.933 c 0.624,0.661 1.225,1.328 1.806,2 l 1.027,-0.892 c -0.593,-0.686 -1.207,-1.366 -1.84,-2.041 m -3.909,-3.86 -0.922,1.002 c 0.671,0.614 1.321,1.236 1.955,1.861 l 0.956,-0.97 c -0.644,-0.637 -1.308,-1.267 -1.989,-1.893 m -87.693,-21.415 c -0.863,0.342 -1.714,0.712 -2.535,1.102 l 0.583,1.231 c 0.794,-0.377 1.622,-0.737 2.455,-1.069 z m 99.035,23.418 c -0.286,0.1 -0.583,0.149 -0.886,0.14 -0.411,-0.007 -0.822,-0.119 -1.18,-0.325 l -0.675,1.183 c 0.556,0.317 1.195,0.49 1.828,0.504 0.467,0.011 0.927,-0.064 1.365,-0.218 z M 46,-63.556 l -0.852,1.062 c 0.709,0.57 1.403,1.144 2.079,1.723 l 0.886,-1.033 C 47.424,-62.393 46.72,-62.978 46,-63.556 m -78.293,-19.586 c -0.899,0.245 -1.787,0.515 -2.641,0.799 l 0.429,1.292 c 0.831,-0.278 1.696,-0.539 2.572,-0.779 z m 89.049,20.759 -1.201,0.639 1.279,2.404 1.201,-0.639 z m -15.277,-4.457 -0.926,0.906 0.664,0.471 c 0.607,0.434 1.208,0.87 1.795,1.315 l 0.818,-1.087 c -0.598,-0.451 -1.205,-0.895 -1.822,-1.336 l -0.113,0.157 z m 22.978,4.994 -1.379,2.347 1.175,0.69 1.38,-2.347 z m -91.374,-22.489 c -0.909,0.156 -1.817,0.335 -2.704,0.532 l 0.295,1.328 c 0.866,-0.191 1.754,-0.365 2.64,-0.519 z m 5.456,-0.704 c -0.924,0.082 -1.836,0.178 -2.734,0.293 l 0.174,1.351 c 0.88,-0.113 1.771,-0.209 2.678,-0.29 z m 75.662,17.849 -1.203,0.639 1.277,2.404 1.204,-0.641 z m -70.175,-18.117 c -0.924,0.011 -1.841,0.038 -2.746,0.082 l 0.067,1.361 c 0.888,-0.043 1.788,-0.07 2.696,-0.082 z m 61.349,14.662 -1.949,1.903 0.953,0.973 1.947,-1.902 z m -55.861,-14.539 c -0.922,-0.05 -1.836,-0.087 -2.741,-0.108 l -0.032,1.362 c 0.892,0.02 1.79,0.056 2.696,0.106 z m 77.702,18.643 -1.379,2.348 1.174,0.689 1.379,-2.347 z M -5.02,-84.705 c -0.916,-0.109 -1.825,-0.202 -2.728,-0.28 l -0.119,1.355 c 0.889,0.078 1.786,0.17 2.687,0.276 z m 5.424,0.807 c -0.906,-0.162 -1.808,-0.309 -2.705,-0.443 l -0.2,1.346 c 0.884,0.132 1.774,0.277 2.668,0.436 z m 8.029,1.768 -0.347,1.317 c 0.869,0.227 1.739,0.468 2.605,0.722 l 0.383,-1.307 c -0.879,-0.255 -1.761,-0.501 -2.641,-0.732 m -2.66,-0.662 c -0.896,-0.209 -1.789,-0.406 -2.677,-0.589 l -0.275,1.333 c 0.876,0.18 1.757,0.375 2.642,0.581 z m 45.87,10.794 -1.203,0.641 1.279,2.404 1.203,-0.642 z m -2.375,-2.452 -1.948,1.903 0.953,0.975 1.948,-1.904 z m -33.823,-9.186 -2.426,1.236 0.618,1.213 2.425,-1.234 z m 54.531,12.401 -1.38,2.347 1.174,0.69 1.378,-2.348 z m -49.677,-14.869 -2.427,1.234 0.617,1.214 2.425,-1.234 z m 52.433,10.174 -1.378,2.346 1.172,0.69 1.38,-2.346 z m -47.582,-12.643 -2.425,1.234 0.617,1.213 2.426,-1.233 z m 4.854,-2.468 -2.426,1.233 0.617,1.214 2.426,-1.236 z m 45.487,10.416 -1.38,2.348 1.172,0.689 1.381,-2.347 z m -40.634,-12.885 -2.425,1.235 0.617,1.212 2.426,-1.234 z m 43.395,8.191 -1.382,2.347 1.173,0.689 1.381,-2.347 z m -38.543,-10.66 -2.424,1.233 0.617,1.215 2.425,-1.236 z m 26.186,5.464 -2.084,1.706 0.422,0.515 -0.626,0.253 0.369,0.858 2.782,-2.28 z m -3.127,-3.083 -1.258,0.522 1.047,2.513 1.256,-0.523 z m -18.205,-4.851 -2.426,1.234 0.617,1.214 2.426,-1.233 z m 36.443,8.435 -1.379,2.347 1.172,0.69 1.382,-2.348 z m -10.898,-3.951 -2.106,1.726 0.862,1.051 2.105,-1.724 z m -20.692,-6.951 -2.426,1.233 0.617,1.214 2.428,-1.235 z m 11.256,2.291 -1.256,0.524 1.048,2.512 1.256,-0.522 z m 23.094,3.915 -1.381,2.349 1.175,0.688 1.379,-2.346 z m -9.448,-2.706 -2.107,1.725 0.865,1.054 2.106,-1.727 z m -20.013,-5.985 -0.096,0.047 -2.367,1.202 0.618,1.214 2.363,-1.203 z m 3.183,-0.055 -0.541,1.248 c 0.597,0.26 1.063,0.73 1.313,1.331 l 0.107,0.262 1.258,-0.523 -0.109,-0.262 c -0.385,-0.926 -1.104,-1.658 -2.028,-2.056 m 21.041,2.589 -2.104,1.725 0.862,1.053 2.106,-1.724 z m 7.993,1.463 -1.378,2.348 1.174,0.69 1.377,-2.348 z m -3.492,-4.881 c -0.404,0.15 -0.774,0.364 -1.104,0.636 l -1.288,1.056 0.86,1.054 1.292,-1.058 c 0.214,-0.175 0.454,-0.315 0.714,-0.412 z m 3.199,0.238 -0.657,1.193 c 0.149,0.082 0.295,0.181 0.426,0.292 0.416,0.357 0.697,0.832 0.815,1.37 l 1.331,-0.284 c -0.181,-0.834 -0.618,-1.567 -1.266,-2.122 -0.202,-0.173 -0.421,-0.323 -0.649,-0.449" />
      </g>
      <g
         id="g1211">
        <g
           id="g1213" />
        <g
           id="g1237">
          <g
             id="g1235"
             clip-path="url(#clipPath1217)">
            <g
               id="g1221"
               transform="translate(317.1006,411.6792)">
              <path
                 inkscape:connector-curvature="0"
                 id="path1219"
                 style="fill:#9c008c;fill-opacity:1;fill-rule:nonzero;stroke:none"
                 d="M 0,0 0.176,0.248 0.244,0.439 0.34,0.901 0.315,1.364 0.303,1.534 0.184,1.915 0.006,2.282 -0.311,2.617 -0.521,2.77 -0.967,3.043 -1.469,3.185 -1.917,3.223 -2.125,3.231 -2.517,3.165 -3.747,2.81 -4.211,2.67 -5.842,2.276 -6.249,2.148 -6.727,1.945 -6.956,1.804 -7.006,1.645 -6.953,1.306 -6.84,0.836 -6.705,0.4 l 0.147,-0.608 0.057,-0.481 0.133,-0.554 0.13,-0.29 0.15,-0.14 0.221,-0.064 0.373,0.032 3.875,1.022 0.926,0.283 0.423,0.189 z m -8.503,7.366 0.081,-0.214 0.135,-0.435 0.129,-0.291 0.15,-0.14 0.248,-0.057 0.338,0.052 1.106,0.267 0.462,0.14 0.471,0.114 0.649,0.097 0.953,0.173 0.608,0.147 0.339,0.169 0.293,0.245 0.228,0.261 0.141,0.269 0.099,0.315 -0.011,0.406 -0.112,0.47 -0.17,0.34 -0.335,0.299 -0.454,0.183 -0.18,0.015 -0.441,0.011 -0.201,-0.018 -0.482,-0.059 -0.25,-0.06 L -5.82,9.943 -6.233,9.843 -6.918,9.649 -7.354,9.515 -7.933,9.375 -8.196,9.253 -8.439,9.165 -8.585,9.042 -8.662,8.877 -8.657,8.499 -8.581,7.814 Z M 5.893,2.854 5.972,2.405 6.088,1.675 6.107,1.239 6.053,0.612 5.98,0.186 5.829,-0.406 5.668,-0.826 5.354,-1.458 5.121,-1.835 4.551,-2.499 4.246,-2.808 3.906,-3.094 3.537,-3.387 3.128,-3.631 2.747,-3.87 1.564,-4.418 0.947,-4.655 0.512,-4.789 -0.139,-5.004 -0.58,-5.111 -2.086,-5.533 -4.491,-6.112 -6.059,-6.403 -6.502,-6.51 l -1.506,-0.422 -0.415,-0.099 -1.056,-0.226 -0.455,-0.052 -0.4,-0.037 -0.241,0.029 -0.172,0.105 -0.128,0.291 -0.122,0.381 -0.071,0.422 -0.106,0.439 -0.027,0.23 -0.113,0.47 -0.27,1.484 -0.135,0.435 -0.195,0.685 -0.127,0.406 -0.119,0.382 -0.102,0.414 -0.139,0.697 -0.293,1.217 -0.244,1.491 -0.107,0.443 -0.407,1.451 -0.107,0.441 -0.381,1.457 -0.078,0.451 -0.271,1.483 -0.078,0.449 -0.465,1.439 -0.134,0.434 -0.282,0.811 -0.153,0.637 0.023,0.385 0.237,0.231 0.373,0.148 0.436,0.134 2.992,0.812 2.438,0.44 1.478,0.416 0.444,0.106 1.525,0.337 0.442,0.108 1.63,0.277 0.483,0.058 0.49,0.031 1.129,-0.079 0.463,-0.094 0.591,-0.149 0.419,-0.161 0.563,-0.275 0.349,-0.236 0.5,-0.377 0.282,-0.314 0.43,-0.451 L 2.575,12.729 2.813,12.347 3.002,11.925 3.287,11.233 3.42,10.797 3.506,10.322 3.537,9.831 3.523,9.155 3.452,8.729 3.273,8.131 3.07,7.76 2.73,7.238 2.561,6.964 2.525,6.751 2.661,6.55 2.977,6.333 3.382,6.11 3.8,5.828 4.354,5.349 4.703,4.995 5.003,4.599 5.167,4.405 5.412,3.997 5.636,3.553 5.805,3.096 Z" />
            </g>
            <g
               id="g1225"
               transform="translate(340.1924,419.2368)">
              <path
                 inkscape:connector-curvature="0"
                 id="path1223"
                 style="fill:#9c008c;fill-opacity:1;fill-rule:nonzero;stroke:none"
                 d="M 0,0 0.154,0.447 0.285,1.121 0.35,1.576 0.336,2.245 0.289,2.673 0.186,3.351 0.073,3.819 -0.068,4.281 -0.203,4.717 -0.569,5.508 -0.771,5.867 -1.223,6.402 -1.531,6.708 -2.038,7.112 -2.389,7.351 -2.908,7.691 -3.271,7.868 -4.092,8.108 -4.518,8.181 -4.992,8.212 -5.455,8.188 -6.353,8.031 -6.761,7.902 -7.363,7.729 -7.758,7.545 -8.428,7.179 -8.83,6.906 -9.387,6.423 -9.714,6.08 l -0.349,-0.494 -0.224,-0.404 -0.204,-0.489 -0.134,-0.412 -0.042,-0.187 -0.11,-0.64 -0.037,-0.447 -0.036,-0.214 0.01,-0.406 0.037,-0.401 0.067,-0.392 0.072,-0.423 0.1,-0.413 0.135,-0.438 0.188,-0.422 0.088,-0.24 0.21,-0.388 0.103,-0.179 0.231,-0.356 0.164,-0.194 0.313,-0.333 0.193,-0.188 0.396,-0.314 0.213,-0.154 0.412,-0.251 0.666,-0.336 0.446,-0.154 0.497,-0.116 0.454,-0.067 0.627,-0.053 0.435,0.019 0.711,0.083 0.475,0.085 0.678,0.221 0.429,0.163 0.574,0.285 0.348,0.26 0.516,0.533 0.27,0.328 0.335,0.549 0.203,0.37 z M 5.876,5.22 5.955,4.771 6.054,4.12 6.098,3.694 6.131,2.824 6.229,2.175 6.275,1.748 6.299,1.285 6.287,0.844 6.15,0.198 6.051,-0.236 5.605,-1.659 5.442,-2.08 5.254,-2.504 5.05,-2.876 4.723,-3.452 4.484,-3.802 4.191,-4.164 3.92,-4.493 3.503,-4.945 3.196,-5.252 2.834,-5.574 2.489,-5.834 1.988,-6.187 1.602,-6.398 0.783,-6.889 0.348,-7.141 -0.068,-7.357 -0.512,-7.58 l -0.45,-0.196 -0.463,-0.143 -1.492,-0.36 -0.954,-0.17 -0.938,-0.11 -0.408,-0.009 -0.439,0.008 -1.615,0.14 -0.474,0.031 -0.516,0.081 -0.979,0.173 -0.466,0.121 -0.476,0.149 -0.425,0.19 -0.434,0.218 -0.417,0.278 -0.391,0.285 -0.926,0.567 -0.357,0.265 -0.362,0.294 -0.307,0.305 -0.355,0.5 -0.715,1.143 -0.307,0.542 -0.181,0.392 -0.19,0.424 -0.183,0.393 -0.229,0.589 -0.127,0.406 -0.142,0.465 -0.114,0.469 -0.085,0.477 -0.092,0.504 -0.059,0.484 -0.029,0.489 -0.003,0.497 0.024,0.502 0.039,0.449 0.059,0.48 0.041,0.684 0.087,0.489 0.05,0.275 0.121,0.466 0.24,0.702 0.183,0.454 0.084,0.255 0.252,0.412 0.376,0.501 0.293,0.361 0.3,0.337 0.695,0.752 0.307,0.306 0.333,0.315 0.34,0.287 0.52,0.389 0.354,0.232 0.381,0.237 0.388,0.211 1.002,0.447 0.397,0.183 1.34,0.5 0.872,0.269 0.843,0.144 0.67,0.133 0.482,0.057 0.491,0.031 0.495,0.003 0.491,0.03 0.468,-0.005 0.442,-0.01 0.448,-0.038 0.633,-0.083 0.427,-0.072 1.038,-0.304 0.419,-0.162 0.427,-0.19 0.576,-0.328 0.37,-0.203 0.377,-0.231 0.33,-0.27 L 2.405,10.874 2.713,10.568 2.994,10.255 3.303,9.95 3.738,9.472 4.047,9.165 4.341,8.796 4.572,8.442 4.863,7.84 5.229,7.052 5.397,6.597 5.595,6.145 Z" />
            </g>
            <g
               id="g1229"
               transform="translate(364.3174,425.0552)">
              <path
                 inkscape:connector-curvature="0"
                 id="path1227"
                 style="fill:#9c008c;fill-opacity:1;fill-rule:nonzero;stroke:none"
                 d="M 0,0 0.154,0.446 0.282,1.121 0.35,1.576 0.334,2.244 0.29,2.672 0.185,3.35 0.071,3.819 -0.069,4.281 -0.203,4.718 -0.569,5.506 -0.773,5.867 -1.225,6.402 -1.53,6.708 -2.039,7.112 -2.389,7.349 -2.91,7.692 -3.273,7.867 -4.092,8.108 -4.52,8.179 -4.996,8.211 -5.457,8.188 -6.354,8.029 -6.762,7.902 -7.365,7.728 -7.758,7.546 -8.43,7.179 -8.832,6.906 -9.389,6.422 -9.717,6.079 l -0.347,-0.494 -0.223,-0.403 -0.205,-0.49 -0.133,-0.411 -0.043,-0.187 -0.109,-0.64 -0.039,-0.447 -0.038,-0.214 0.012,-0.406 0.039,-0.401 0.065,-0.393 0.074,-0.421 0.1,-0.414 0.133,-0.438 0.189,-0.423 0.088,-0.241 0.211,-0.387 0.101,-0.179 0.231,-0.356 0.164,-0.193 0.314,-0.333 0.193,-0.189 0.397,-0.314 0.213,-0.153 0.411,-0.251 0.665,-0.336 0.446,-0.155 0.497,-0.115 0.456,-0.066 0.625,-0.055 0.433,0.02 0.713,0.082 0.477,0.086 0.678,0.22 0.427,0.164 0.575,0.284 0.348,0.259 0.515,0.535 0.27,0.327 0.337,0.55 0.203,0.37 z M 5.874,5.219 5.954,4.771 6.051,4.12 6.096,3.693 6.131,2.824 6.229,2.175 6.271,1.747 6.297,1.285 6.286,0.844 6.149,0.197 6.05,-0.236 5.602,-1.66 5.442,-2.079 5.251,-2.506 5.049,-2.876 4.721,-3.452 4.482,-3.803 4.189,-4.164 3.918,-4.493 3.501,-4.947 3.195,-5.254 2.836,-5.575 2.487,-5.834 1.986,-6.188 1.6,-6.398 0.78,-6.889 0.346,-7.141 -0.07,-7.357 -0.513,-7.58 -0.962,-7.776 -1.426,-7.918 -2.919,-8.279 -3.871,-8.45 l -0.941,-0.109 -0.405,-0.009 -0.441,0.008 -1.613,0.139 -0.477,0.03 -0.514,0.081 -0.978,0.175 -0.468,0.121 -0.475,0.149 -0.426,0.19 -0.433,0.217 -0.418,0.277 -0.39,0.286 -0.926,0.568 -0.357,0.265 -0.362,0.292 -0.308,0.306 -0.353,0.501 -0.717,1.143 -0.305,0.54 -0.182,0.394 -0.191,0.423 -0.182,0.394 -0.231,0.588 -0.127,0.407 -0.139,0.465 -0.114,0.469 -0.088,0.477 -0.091,0.505 -0.059,0.482 -0.029,0.489 -0.002,0.498 0.023,0.502 0.037,0.447 0.063,0.482 0.037,0.684 0.089,0.488 0.051,0.275 0.121,0.468 0.239,0.701 0.183,0.454 0.084,0.255 0.252,0.412 0.377,0.5 0.291,0.362 0.299,0.336 0.698,0.753 0.306,0.306 0.334,0.316 0.34,0.287 0.521,0.388 0.352,0.232 0.383,0.237 0.387,0.211 1.003,0.447 0.393,0.183 1.342,0.499 0.873,0.269 0.844,0.145 0.668,0.133 0.484,0.056 0.488,0.032 0.498,0.002 0.489,0.03 0.469,-0.005 0.443,-0.009 0.447,-0.039 0.633,-0.082 0.428,-0.072 1.039,-0.305 0.418,-0.162 0.425,-0.188 0.575,-0.33 0.374,-0.203 0.376,-0.23 0.328,-0.271 0.515,-0.434 0.307,-0.305 0.28,-0.313 L 3.299,9.95 3.738,9.471 4.045,9.164 4.339,8.795 4.57,8.442 4.862,7.839 5.229,7.051 5.396,6.595 5.592,6.144 Z" />
            </g>
            <g
               id="g1233"
               transform="translate(397.0244,428.6157)">
              <path
                 inkscape:connector-curvature="0"
                 id="path1231"
                 style="fill:#9c008c;fill-opacity:1;fill-rule:nonzero;stroke:none"
                 d="M 0,0 0.136,-0.436 0.452,-1.267 0.579,-1.675 0.605,-1.9 0.651,-2.212 0.567,-2.467 0.436,-2.645 0.145,-2.772 -0.266,-2.9 -0.707,-3.007 -1.832,-3.191 -2.309,-3.278 -3,-3.444 l -0.504,-0.092 -1.055,-0.11 -0.208,0.01 -0.143,0.113 -0.094,0.269 -0.122,0.38 -0.127,0.408 -0.171,0.953 -0.627,2.598 -0.503,1.72 -0.106,0.443 -0.303,1.738 -0.519,2.158 -0.137,0.317 -0.193,0.071 -0.165,-0.041 -0.132,-0.293 -0.184,-0.454 -0.84,-1.606 -1.201,-2.425 -0.77,-1.65 -0.197,-0.28 -0.173,-0.13 -0.22,-0.053 -0.318,-0.018 -0.351,0.003 -0.36,0.147 -1.78,1.326 -1.35,1.107 -0.354,0.266 -1.824,1.256 -0.446,0.273 -0.153,-0.095 0.02,-0.318 0.336,-1.761 0.106,-0.441 0.53,-1.715 0.107,-0.442 0.475,-1.728 0.107,-0.441 0.386,-1.722 0.099,-0.414 0.228,-0.823 0.078,-0.449 0.088,-0.476 0.031,-0.371 -0.071,-0.195 -0.182,-0.101 -0.698,-0.257 -0.434,-0.134 -1.099,-0.177 -0.436,-0.133 -1.299,-0.431 -0.635,-0.154 -0.347,-0.025 -0.205,0.126 -0.102,0.181 -0.122,0.265 -0.153,0.633 -0.153,0.871 -1.025,4.255 -0.408,1.451 -0.108,0.443 -0.324,1.47 -0.135,0.437 -0.443,1.473 -0.106,0.442 -0.271,1.484 -0.078,0.449 -0.465,1.438 -0.078,0.448 -0.242,1.492 -0.109,0.441 -0.356,0.996 -0.106,0.442 -0.032,0.374 0.064,0.218 0.131,0.179 0.211,0.109 0.349,0.115 0.486,0.057 0.643,0.01 0.44,0.106 0.836,0.29 0.456,0.168 0.41,0.128 1.055,0.225 0.361,0.086 0.337,-0.064 0.349,-0.237 1.227,-0.844 0.363,-0.293 1.073,-0.941 0.365,-0.292 1.171,-0.858 0.37,-0.32 1.117,-0.871 0.349,-0.238 0.283,-0.077 0.276,0.066 0.215,0.198 0.183,0.336 0.561,1.306 0.184,0.453 0.623,1.291 0.192,0.427 0.705,1.312 0.192,0.425 0.504,1.057 0.148,0.356 0.167,0.276 0.245,0.205 0.365,0.058 1.485,0.271 1.305,0.285 0.444,0.108 0.814,0.253 0.477,0.086 0.346,0.026 0.204,-0.009 0.2,-0.099 0.109,-0.206 0.052,-0.34 0.189,-1.269 0.081,-0.449 0.406,-1.451 0.108,-0.442 0.326,-1.472 0.106,-0.443 0.38,-1.456 0.107,-0.442 0.472,-1.467 0.106,-0.444 0.241,-1.489 0.109,-0.443 0.434,-1.444 0.108,-0.443 0.243,-1.492 0.106,-0.44 z" />
            </g>
          </g>
        </g>
      </g>
      <g
         transform="translate(319.2705,415.4497)"
         id="g1239">
        <path
           inkscape:connector-curvature="0"
           id="path1241"
           style="fill:#ffffff;fill-opacity:1;fill-rule:nonzero;stroke:none"
           d="M 0,0 0.175,0.248 0.245,0.439 0.338,0.901 0.314,1.363 0.303,1.535 0.181,1.916 0.006,2.281 -0.31,2.617 -0.522,2.771 -0.968,3.043 -1.469,3.186 -1.918,3.223 -2.125,3.231 -2.518,3.166 -3.748,2.812 -4.211,2.669 -5.842,2.276 -6.25,2.148 -6.727,1.946 -6.957,1.803 -7.006,1.645 l 0.053,-0.338 0.112,-0.47 0.136,-0.435 0.146,-0.61 0.057,-0.482 0.134,-0.552 0.129,-0.292 0.149,-0.138 0.222,-0.065 0.374,0.032 3.875,1.024 0.926,0.282 0.422,0.189 z m -8.504,7.367 0.082,-0.216 0.135,-0.435 0.127,-0.29 0.152,-0.139 0.247,-0.058 0.339,0.053 1.106,0.266 0.462,0.141 0.471,0.114 0.648,0.098 0.954,0.17 0.607,0.148 0.34,0.17 0.291,0.244 0.229,0.261 0.141,0.268 0.099,0.317 -0.011,0.405 -0.112,0.47 -0.17,0.34 -0.335,0.299 -0.454,0.182 -0.18,0.016 -0.441,0.011 -0.2,-0.019 -0.482,-0.059 -0.25,-0.06 L -5.82,9.942 -6.234,9.844 -6.919,9.65 -7.354,9.515 -7.934,9.376 -8.197,9.252 -8.439,9.165 -8.586,9.042 -8.662,8.878 -8.658,8.498 -8.581,7.816 Z M 5.892,2.854 5.972,2.406 6.088,1.675 6.105,1.24 6.051,0.611 5.98,0.185 5.828,-0.406 5.668,-0.826 5.354,-1.457 5.121,-1.836 4.55,-2.499 4.244,-2.806 3.904,-3.093 3.536,-3.386 3.127,-3.632 2.745,-3.87 1.563,-4.418 0.947,-4.655 0.512,-4.79 -0.139,-5.004 -0.58,-5.111 l -1.507,-0.421 -2.405,-0.58 -1.567,-0.292 -0.443,-0.107 -1.506,-0.42 -0.416,-0.1 -1.056,-0.226 -0.456,-0.053 -0.399,-0.037 -0.241,0.031 -0.171,0.103 -0.128,0.291 -0.123,0.381 -0.071,0.422 -0.105,0.441 -0.028,0.229 -0.113,0.469 -0.27,1.485 -0.135,0.436 -0.194,0.684 -0.127,0.405 -0.12,0.382 -0.101,0.415 -0.14,0.696 -0.293,1.216 -0.243,1.493 -0.106,0.442 -0.407,1.451 -0.108,0.441 -0.38,1.459 -0.079,0.45 -0.271,1.482 -0.079,0.451 -0.464,1.439 -0.135,0.435 -0.283,0.808 -0.153,0.637 0.024,0.386 0.237,0.232 0.372,0.149 0.438,0.133 2.991,0.81 2.437,0.441 1.479,0.415 0.443,0.107 1.527,0.339 0.442,0.107 1.628,0.276 0.485,0.059 0.49,0.029 1.129,-0.077 0.462,-0.095 0.591,-0.149 0.419,-0.162 0.563,-0.275 0.35,-0.235 0.5,-0.377 0.281,-0.315 0.431,-0.45 0.258,-0.346 0.239,-0.382 0.189,-0.423 0.285,-0.691 0.134,-0.436 0.085,-0.476 0.03,-0.49 L 3.523,9.154 3.451,8.728 3.273,8.129 3.07,7.759 2.729,7.238 2.561,6.964 2.525,6.75 2.66,6.55 2.977,6.333 3.381,6.109 3.799,5.828 4.354,5.349 4.703,4.994 5.002,4.599 5.166,4.404 5.412,3.996 5.635,3.552 5.805,3.096 Z" />
      </g>
      <g
         transform="translate(342.3604,423.0083)"
         id="g1243">
        <path
           inkscape:connector-curvature="0"
           id="path1245"
           style="fill:#ffffff;fill-opacity:1;fill-rule:nonzero;stroke:none"
           d="M 0,0 0.156,0.446 0.285,1.119 0.351,1.575 0.336,2.242 0.291,2.673 0.186,3.349 0.074,3.818 -0.068,4.281 -0.202,4.716 -0.568,5.506 -0.771,5.866 -1.221,6.401 -1.529,6.707 -2.036,7.11 -2.387,7.349 -2.908,7.691 -3.271,7.866 -4.091,8.106 -4.517,8.179 -4.992,8.211 -5.455,8.187 -6.354,8.029 -6.76,7.9 -7.361,7.728 -7.755,7.543 -8.428,7.178 -8.829,6.905 -9.385,6.421 -9.711,6.079 -10.061,5.585 -10.286,5.18 -10.49,4.691 l -0.133,-0.412 -0.043,-0.185 -0.108,-0.641 -0.039,-0.447 -0.036,-0.214 0.008,-0.406 0.039,-0.401 0.067,-0.392 0.072,-0.421 0.099,-0.416 0.136,-0.437 0.189,-0.422 0.087,-0.242 0.211,-0.387 0.101,-0.18 0.232,-0.354 0.164,-0.194 0.313,-0.332 0.193,-0.19 0.397,-0.313 0.212,-0.153 0.413,-0.252 0.665,-0.337 0.446,-0.155 0.496,-0.113 0.455,-0.067 0.627,-0.054 0.435,0.019 0.71,0.083 0.477,0.085 0.677,0.221 0.429,0.164 0.575,0.284 0.348,0.258 0.514,0.534 0.271,0.328 0.336,0.55 0.203,0.37 z M 5.877,5.218 5.955,4.771 6.055,4.121 6.099,3.692 6.134,2.823 6.232,2.174 6.276,1.747 6.299,1.283 6.289,0.844 6.153,0.196 6.053,-0.237 5.606,-1.661 5.443,-2.081 5.254,-2.506 5.051,-2.877 4.723,-3.455 4.484,-3.803 4.193,-4.167 3.922,-4.495 3.504,-4.946 3.197,-5.254 2.835,-5.575 2.49,-5.836 1.99,-6.188 1.602,-6.398 0.783,-6.889 0.35,-7.141 -0.068,-7.357 -0.512,-7.58 l -0.451,-0.197 -0.461,-0.142 -1.492,-0.36 -0.955,-0.17 -0.938,-0.11 -0.406,-0.011 -0.44,0.01 -1.615,0.138 -0.474,0.033 -0.516,0.079 -0.977,0.174 -0.468,0.122 -0.475,0.148 -0.425,0.19 -0.434,0.216 -0.418,0.28 -0.389,0.285 -0.929,0.567 -0.356,0.266 -0.363,0.292 -0.308,0.306 -0.354,0.498 -0.713,1.145 -0.307,0.541 -0.181,0.395 -0.19,0.422 -0.184,0.394 -0.228,0.587 -0.129,0.408 -0.142,0.464 -0.112,0.469 -0.086,0.477 -0.092,0.505 -0.057,0.481 -0.032,0.49 -0.002,0.497 0.025,0.504 0.038,0.447 0.06,0.482 0.04,0.684 0.087,0.487 0.05,0.275 0.122,0.468 0.239,0.702 0.183,0.454 0.083,0.254 0.252,0.412 0.377,0.501 0.293,0.362 0.299,0.334 0.697,0.754 0.305,0.306 0.334,0.316 0.34,0.288 0.519,0.388 0.356,0.231 0.38,0.238 0.388,0.21 1.004,0.447 0.396,0.182 1.341,0.501 0.87,0.269 0.843,0.144 0.669,0.134 0.483,0.055 0.491,0.031 0.496,0.003 0.49,0.03 0.468,-0.004 0.442,-0.01 0.448,-0.039 0.635,-0.081 0.425,-0.073 1.038,-0.304 0.42,-0.162 0.427,-0.191 0.576,-0.327 0.37,-0.204 0.376,-0.23 L 1.895,11.306 2.408,10.873 2.715,10.567 2.996,10.254 3.304,9.949 3.74,9.469 4.049,9.165 4.342,8.796 4.573,8.441 4.865,7.84 5.23,7.051 5.399,6.594 5.596,6.145 Z" />
      </g>
      <g
         transform="translate(366.4854,428.8257)"
         id="g1247">
        <path
           inkscape:connector-curvature="0"
           id="path1249"
           style="fill:#ffffff;fill-opacity:1;fill-rule:nonzero;stroke:none"
           d="M 0,0 0.154,0.446 0.285,1.12 0.351,1.576 0.334,2.243 0.289,2.672 0.184,3.349 0.07,3.818 -0.068,4.282 -0.204,4.718 -0.568,5.507 -0.771,5.867 -1.225,6.401 -1.532,6.708 -2.037,7.111 -2.388,7.35 -2.908,7.692 -3.273,7.867 -4.091,8.107 -4.516,8.18 -4.993,8.211 -5.457,8.188 -6.354,8.028 -6.76,7.902 -7.361,7.729 -7.758,7.544 -8.429,7.179 -8.832,6.905 -9.385,6.421 -9.715,6.079 -10.063,5.586 -10.287,5.181 -10.49,4.692 -10.625,4.28 l -0.043,-0.185 -0.108,-0.64 -0.038,-0.448 -0.038,-0.215 0.011,-0.405 0.037,-0.402 0.067,-0.393 0.071,-0.421 0.101,-0.414 0.133,-0.436 0.192,-0.423 0.086,-0.243 0.211,-0.385 0.103,-0.181 0.232,-0.355 0.163,-0.193 0.314,-0.334 0.191,-0.188 0.398,-0.313 0.211,-0.153 0.413,-0.253 0.666,-0.336 0.447,-0.156 0.495,-0.113 0.456,-0.067 0.627,-0.053 0.434,0.019 0.709,0.081 0.477,0.086 0.679,0.22 0.428,0.165 0.576,0.286 0.346,0.257 0.515,0.534 0.271,0.328 0.336,0.549 0.204,0.371 z M 5.875,5.219 5.956,4.769 6.052,4.12 6.097,3.693 6.131,2.824 6.229,2.175 6.274,1.746 6.299,1.285 6.289,0.844 6.15,0.196 6.051,-0.237 5.605,-1.66 5.443,-2.079 5.252,-2.506 5.051,-2.876 4.721,-3.454 4.484,-3.802 4.191,-4.166 3.92,-4.494 3.503,-4.945 3.197,-5.253 2.834,-5.573 2.486,-5.836 1.988,-6.187 1.601,-6.398 0.781,-6.888 0.346,-7.141 -0.068,-7.356 -0.512,-7.58 -0.961,-7.777 -1.424,-7.918 -2.918,-8.279 -3.87,-8.448 -4.809,-8.56 l -0.408,-0.008 -0.439,0.009 -1.612,0.138 -0.476,0.032 -0.519,0.079 -0.976,0.174 -0.468,0.122 -0.475,0.149 -0.426,0.189 -0.431,0.217 -0.422,0.28 -0.389,0.285 -0.923,0.567 -0.359,0.265 -0.362,0.292 -0.308,0.306 -0.354,0.499 -0.716,1.144 -0.305,0.542 -0.182,0.393 -0.191,0.422 -0.182,0.396 -0.231,0.587 -0.127,0.408 -0.139,0.464 -0.114,0.469 -0.087,0.476 -0.091,0.506 -0.059,0.481 -0.029,0.489 -0.002,0.498 0.023,0.503 0.038,0.448 0.061,0.482 0.039,0.684 0.087,0.486 0.051,0.276 0.121,0.468 0.24,0.703 0.182,0.452 0.085,0.255 0.252,0.412 0.375,0.5 0.293,0.364 0.299,0.333 0.697,0.753 0.307,0.307 0.333,0.316 0.341,0.287 0.519,0.388 0.355,0.232 0.38,0.237 0.388,0.211 1.003,0.447 0.396,0.184 1.342,0.499 0.87,0.268 0.842,0.144 0.67,0.133 0.484,0.058 0.491,0.03 0.494,0.003 0.491,0.03 0.468,-0.004 0.444,-0.011 0.445,-0.038 0.633,-0.082 0.429,-0.073 1.038,-0.304 0.42,-0.163 0.425,-0.189 0.576,-0.328 0.37,-0.203 0.378,-0.23 L 1.893,11.307 2.406,10.873 2.714,10.568 2.992,10.255 3.303,9.949 3.739,9.47 4.045,9.166 4.341,8.796 4.572,8.442 4.862,7.84 5.229,7.05 5.396,6.595 5.592,6.144 Z" />
      </g>
      <g
         transform="translate(399.1953,432.3853)"
         id="g1251">
        <path
           inkscape:connector-curvature="0"
           id="path1253"
           style="fill:#ffffff;fill-opacity:1;fill-rule:nonzero;stroke:none"
           d="M 0,0 0.135,-0.435 0.452,-1.265 0.579,-1.673 0.605,-1.9 0.649,-2.21 0.565,-2.467 0.432,-2.644 0.142,-2.771 -0.268,-2.899 -0.708,-3.006 -1.834,-3.189 -2.31,-3.275 -3,-3.441 l -0.505,-0.093 -1.056,-0.111 -0.208,0.01 -0.142,0.113 -0.096,0.269 -0.119,0.381 -0.127,0.406 -0.172,0.954 -0.627,2.599 -0.504,1.721 -0.104,0.441 -0.304,1.738 -0.519,2.158 -0.135,0.318 -0.194,0.07 -0.166,-0.04 -0.133,-0.294 -0.183,-0.455 -0.841,-1.605 -1.198,-2.424 -0.774,-1.651 -0.195,-0.281 -0.174,-0.129 -0.221,-0.053 -0.316,-0.018 -0.353,0.002 -0.357,0.149 -1.782,1.325 -1.349,1.108 -0.356,0.265 -1.823,1.255 -0.446,0.274 -0.155,-0.096 0.019,-0.317 0.338,-1.762 0.106,-0.441 0.529,-1.715 0.108,-0.442 0.474,-1.728 0.108,-0.44 0.386,-1.722 0.098,-0.414 0.229,-0.822 0.078,-0.45 0.086,-0.476 0.032,-0.372 -0.071,-0.194 -0.179,-0.101 -0.698,-0.256 -0.436,-0.134 -1.097,-0.177 -0.436,-0.134 -1.299,-0.432 -0.637,-0.152 -0.344,-0.025 -0.205,0.126 -0.103,0.181 -0.123,0.262 -0.152,0.634 -0.151,0.871 -1.026,4.255 -0.411,1.453 -0.107,0.442 -0.323,1.471 -0.137,0.436 -0.442,1.472 -0.106,0.442 -0.27,1.483 -0.078,0.452 -0.465,1.437 -0.079,0.447 -0.241,1.494 -0.108,0.441 -0.359,0.995 -0.104,0.442 -0.033,0.373 0.067,0.221 0.131,0.178 0.206,0.109 0.352,0.115 0.486,0.056 0.64,0.009 0.444,0.107 0.834,0.29 0.459,0.168 0.407,0.127 1.056,0.227 0.36,0.085 0.338,-0.064 0.347,-0.238 1.227,-0.845 0.365,-0.292 1.072,-0.939 0.364,-0.293 1.172,-0.857 0.371,-0.321 1.115,-0.87 0.351,-0.238 0.281,-0.078 0.276,0.067 0.217,0.197 0.181,0.336 0.562,1.305 0.185,0.454 0.625,1.291 0.188,0.427 0.708,1.31 0.19,0.425 0.504,1.06 0.148,0.355 0.17,0.276 0.242,0.205 0.365,0.058 1.485,0.27 1.306,0.286 0.442,0.107 0.815,0.254 0.478,0.087 0.342,0.025 0.207,-0.009 0.201,-0.097 0.109,-0.209 0.051,-0.338 0.191,-1.271 0.079,-0.448 0.407,-1.452 0.107,-0.442 0.325,-1.471 0.109,-0.443 0.379,-1.457 0.108,-0.442 0.47,-1.465 L -1.54,7.231 -1.298,5.742 -1.19,5.301 -0.755,3.854 -0.647,3.412 -0.404,1.92 -0.299,1.479 Z" />
      </g>
      <g
         id="g1255">
        <g
           id="g1257" />
        <g
           id="g1269">
          <g
             id="g1267"
             clip-path="url(#clipPath1261)">
            <g
               id="g1265"
               transform="translate(371.1904,455.4224)">
              <path
                 inkscape:connector-curvature="0"
                 id="path1263"
                 style="fill:#9c008c;fill-opacity:1;fill-rule:nonzero;stroke:none"
                 d="m 0,0 5.383,3.654 -6.457,0.798 1.222,6.39 -5.129,-4.002 -3.654,5.383 -0.798,-6.456 -6.389,1.223 4,-5.131 -5.383,-3.652 6.457,-0.8 -1.223,-6.388 5.129,4.002 3.654,-5.384 0.799,6.457 6.39,-1.224 z" />
            </g>
          </g>
        </g>
      </g>
      <g
         id="g1271">
        <g
           id="g1273" />
        <g
           id="g1285">
          <g
             id="g1283"
             clip-path="url(#clipPath1277)">
            <g
               id="g1281"
               transform="translate(333.0781,443.7856)">
              <path
                 inkscape:connector-curvature="0"
                 id="path1279"
                 style="fill:#9c008c;fill-opacity:1;fill-rule:nonzero;stroke:none"
                 d="m 0,0 3.245,2.203 -3.892,0.48 0.738,3.853 -3.094,-2.412 -2.201,3.245 -0.483,-3.892 -3.851,0.737 2.412,-3.094 -3.244,-2.201 3.891,-0.481 -0.737,-3.852 3.094,2.413 2.2,-3.246 0.483,3.893 3.852,-0.738 z" />
            </g>
          </g>
        </g>
      </g>
      <g
         id="g1287">
        <g
           id="g1289" />
        <g
           id="g1301">
          <g
             id="g1299"
             clip-path="url(#clipPath1293)">
            <g
               id="g1297"
               transform="translate(362.9443,407.4497)">
              <path
                 inkscape:connector-curvature="0"
                 id="path1295"
                 style="fill:#9c008c;fill-opacity:1;fill-rule:nonzero;stroke:none"
                 d="M 0,0 2.656,1.805 -0.531,2.199 0.073,5.355 -2.46,3.379 -4.267,6.037 -4.66,2.848 -7.816,3.453 -5.84,0.919 l -2.657,-1.805 3.187,-0.395 -0.603,-3.156 2.534,1.976 1.804,-2.658 0.395,3.189 3.156,-0.605 z" />
            </g>
          </g>
        </g>
      </g>
    </g>
  </g>
</svg>
