<?xml version="1.0" ?><svg xmlns:inkscape="http://www.inkscape.org/namespaces/inkscape" xmlns:sodipodi="http://sodipodi.sourceforge.net/DTD/sodipodi-0.dtd" xmlns="http://www.w3.org/2000/svg" xmlns:svg="http://www.w3.org/2000/svg" width="32" height="32" viewBox="0 0 8.4666662 8.4666666" version="1.1" id="svg1066"><defs id="defs1063"/><g id="layer1"><path style="fill:#cccccc;fill-opacity:1;stroke-width:0.999999" d="M 6.3381758,4.7138836 C 6.2614088,4.8477529 6.1503326,4.98154 6.0913301,5.0111865 5.6425309,5.2367067 5.6987889,5.2275641 4.8013859,5.2207824 4.3294689,5.2174924 3.8181339,5.2016644 3.6650809,5.1862714 3.3088629,5.1503904 2.6264629,5.0353603 2.5726149,5.0020766 c -0.02274,-0.014078 -0.07786,0.017091 -0.122475,0.06917 -0.196981,0.2300505 -0.605791,0.00729 -0.847499,-0.4618265 -0.299039,-0.580385 0.07339,-1.2352916 0.778938,-1.3697306 0.349386,-0.066573 1.762649,-0.044864 1.837741,0.028212 0.02421,0.02361 0.194712,0.042892 0.378835,0.042892 0.33904,0 0.481509,0.027225 0.481509,0.091925 0,0.019611 -0.06455,0.048534 -0.143445,0.064311 -0.07889,0.015776 -0.204118,0.093639 -0.278278,0.1730308 -0.123285,0.1319794 -0.134833,0.17325 -0.134833,0.4818867 0,0.334098 0.0016,0.3392362 0.182749,0.5026479 0.364309,0.329135 0.589867,0.3787375 0.972899,0.2139618 0.2664454,-0.1146261 0.4212573,-0.3727838 0.4212573,-0.7024775 0,-0.3739991 -0.1999605,-0.6084867 -0.5601173,-0.6568293 -0.261395,-0.035114 -0.362966,-0.079857 -0.336672,-0.1483912 0.039931,-0.1041077 0.667319,-0.057825 0.8339241,0.061522 0.4971703,0.3561302 0.5987911,0.8022405 0.3010278,1.3214919 z" id="path618"/><path style="fill:#cccccc;fill-opacity:1;stroke-width:0.999999" d="M 5.6917219,4.4752055 C 5.5854399,4.5941583 5.5195519,4.6238377 5.3307279,4.6378337 5.1282419,4.6528427 5.0784809,4.637412 4.9273719,4.5128661 4.7718979,4.3847158 4.7553229,4.3495201 4.7582639,4.15386 c 0.0044,-0.3022165 0.04388,-0.3756589 0.25401,-0.4743161 0.147872,-0.069421 0.192314,-0.074445 0.229717,-0.025965 0.02553,0.033032 0.115814,0.062015 0.200672,0.064376 0.08486,0.00219 0.204869,0.037414 0.266687,0.077923 0.093929,0.061545 0.1123846,0.1114208 0.1123846,0.3037339 0,0.1865504 -0.024596,0.2576373 -0.1300126,0.3756097 z" id="path620"/><path id="path616" style="fill:#000000;stroke-width:0.999999" d="m 3.0928278,2.965349 c 0.2030228,0.00148 0.4430614,0.012048 0.7322551,0.028939 0.4464045,0.02607 1.0407706,0.041643 1.3213663,0.034623 0.8860607,-0.022059 1.0140134,-0.01455 1.1756389,0.069246 0.2392579,0.1240361 0.6023195,0.5546794 0.6614583,0.784965 0.053311,0.2075852 0.010167,0.6555419 -0.080098,0.8319905 C 6.8159554,4.8861498 6.5734573,5.2086967 6.4693664,5.2923388 6.4307084,5.3234038 6.2946014,5.3842948 6.1670593,5.427731 5.8704041,5.5287636 4.6412076,5.525374 3.7987284,5.421531 3.4508597,5.378642 3.0973372,5.362223 2.9042094,5.38019 2.3952679,5.427492 2.139374,5.34419 1.8298563,5.0298238 1.5536886,4.7493361 1.4593876,4.5342882 1.4598526,4.1864631 1.4602856,3.8428727 1.5439633,3.6393322 1.783347,3.3999478 2.1147597,3.068522 2.3677436,2.9600489 3.0928278,2.965349 Z m 0.3865397,0.2346111 c -0.3589726,-0.00158 -0.7153082,0.010665 -0.868164,0.039791 -0.7055463,0.1344385 -1.0783193,0.7895582 -0.7792806,1.369942 0.2417067,0.4691156 0.6505127,0.6915206 0.8474935,0.4614706 0.044615,-0.052079 0.099733,-0.083324 0.1224731,-0.069246 0.053848,0.033284 0.7362221,0.1486039 1.0924398,0.1844849 0.1530528,0.015393 0.6644482,0.031333 1.1363647,0.034623 0.8974011,0.00678 0.8410457,0.015714 1.2898438,-0.2098063 C 6.3795401,4.9815722 6.4907843,4.8479486 6.5675511,4.7140795 6.8653138,4.1948291 6.7634468,3.7483258 6.2662775,3.3921964 6.0996728,3.2728494 5.4726676,3.2265939 5.4327367,3.3307014 c -0.026294,0.068534 0.075019,0.1137143 0.3364136,0.1488281 0.360156,0.048343 0.5601725,0.2828092 0.5601725,0.6568075 0,0.3296931 -0.1547185,0.5876568 -0.4211629,0.7022827 C 5.5251282,5.0033951 5.2994013,4.9538136 4.9350926,4.6246793 4.7539448,4.4612679 4.7526748,4.4559649 4.7526748,4.1218676 c 0,-0.3086361 0.011591,-0.3496452 0.1348755,-0.4816243 0.07416,-0.079392 0.1991293,-0.1573401 0.2780192,-0.1731161 0.078895,-0.015777 0.1436605,-0.044985 0.1436605,-0.064596 0,-0.0647 -0.1425847,-0.091467 -0.4816243,-0.091467 -0.1841219,0 -0.3545783,-0.019281 -0.3787883,-0.042892 -0.042239,-0.041105 -0.5079133,-0.066184 -0.9694499,-0.068213 z m 1.936316,0.4216796 c -0.035049,-0.00191 -0.086351,0.016659 -0.1741496,0.057878 -0.2101298,0.098657 -0.2498481,0.1721735 -0.2542481,0.4743897 -0.00294,0.1956599 0.013508,0.231001 0.168982,0.3591512 C 5.3073766,4.637604 5.3573749,4.6526074 5.5598607,4.6375984 5.7486845,4.6236024 5.8147971,4.5942871 5.921079,4.4753344 6.0264955,4.3573621 6.0507868,4.286197 6.0507868,4.0996467 6.0507868,3.9073338 6.0325778,3.8573343 5.938649,3.7957893 5.876831,3.7552803 5.7568585,3.7199483 5.6719986,3.7177583 5.5871406,3.7153983 5.4965072,3.6867113 5.4709772,3.6536793 5.4557822,3.6339843 5.4396642,3.6229443 5.4156835,3.6216397 Z"/></g></svg>