<?xml version="1.0" ?><svg xmlns:inkscape="http://www.inkscape.org/namespaces/inkscape" xmlns:sodipodi="http://sodipodi.sourceforge.net/DTD/sodipodi-0.dtd" xmlns="http://www.w3.org/2000/svg" xmlns:svg="http://www.w3.org/2000/svg" width="32" height="32" viewBox="0 0 8.4666662 8.4666666" version="1.1" id="svg1066"><defs id="defs1063"/><g id="layer1"><path style="fill:#cccccc;fill-opacity:1;stroke-width:0.999999" d="m 2.1284907,4.7138836 c 0.076767,0.1338693 0.1878432,0.2676564 0.2468457,0.2973029 0.4487992,0.2255202 0.3925412,0.2163776 1.2899442,0.2095959 0.471917,-0.00329 0.983252,-0.019118 1.136305,-0.034511 0.356218,-0.035881 1.038618,-0.1509111 1.092466,-0.1841948 0.02274,-0.014078 0.07786,0.017091 0.122475,0.06917 0.196981,0.2300505 0.605791,0.00729 0.847499,-0.4618265 0.299039,-0.580385 -0.07339,-1.2352916 -0.778938,-1.3697306 -0.349386,-0.066573 -1.762649,-0.044864 -1.837741,0.028212 -0.02421,0.02361 -0.194712,0.042892 -0.378835,0.042892 -0.33904,0 -0.481509,0.027225 -0.481509,0.091925 0,0.019611 0.06455,0.048534 0.143445,0.064311 0.07889,0.015776 0.204118,0.093639 0.278278,0.1730308 0.123285,0.1319794 0.134833,0.17325 0.134833,0.4818867 0,0.334098 -0.0016,0.3392362 -0.182749,0.5026479 -0.364309,0.329135 -0.589867,0.3787375 -0.972899,0.2139618 C 2.5214652,4.7239306 2.3666533,4.4657729 2.3666533,4.1360792 c 0,-0.3739991 0.1999605,-0.6084867 0.5601173,-0.6568293 0.261395,-0.035114 0.362966,-0.079857 0.336672,-0.1483912 C 3.2235116,3.226751 2.5961236,3.2730338 2.4295185,3.392381 1.9323482,3.7485112 1.8307274,4.1946215 2.1284907,4.7138729 Z" id="path618"/><path style="fill:#cccccc;fill-opacity:1;stroke-width:0.999999" d="m 2.7749446,4.4752055 c 0.106282,0.1189528 0.17217,0.1486322 0.360994,0.1626282 0.202486,0.015009 0.252247,-4.217e-4 0.403356,-0.1249676 0.155474,-0.1281503 0.172049,-0.163346 0.169108,-0.3590061 -0.0044,-0.3022165 -0.04388,-0.3756589 -0.25401,-0.4743161 -0.147872,-0.069421 -0.192314,-0.074445 -0.229717,-0.025965 -0.02553,0.033032 -0.115814,0.062015 -0.200672,0.064376 -0.08486,0.00219 -0.204869,0.037414 -0.266687,0.077923 -0.093929,0.061545 -0.1123846,0.1114208 -0.1123846,0.3037339 0,0.1865504 0.024596,0.2576373 0.1300126,0.3756097 z" id="path620"/><path id="path616" style="fill:#000000;stroke-width:0.999999" d="M 5.3738387,2.965349 C 5.1708159,2.966829 4.9307773,2.9773969 4.6415836,2.9942879 4.1951791,3.0203578 3.600813,3.0359311 3.3202173,3.0289111 2.4341566,3.0068522 2.3062039,3.0143616 2.1445784,3.0981575 1.9053205,3.2221936 1.5422589,3.6528369 1.4831201,3.8831225 c -0.053311,0.2075852 -0.010167,0.6555419 0.080098,0.8319905 0.087493,0.1710368 0.3299911,0.4935837 0.434082,0.5772258 0.038658,0.031065 0.174765,0.091956 0.3023071,0.1353922 0.2966552,0.1010326 1.5258517,0.097643 2.3683309,-0.0062 C 5.0158068,5.378642 5.3693293,5.362223 5.5624571,5.38019 6.0713986,5.427492 6.3272925,5.34419 6.6368102,5.0298238 6.9129779,4.7493361 7.0072789,4.5342882 7.0068139,4.1864631 7.0063809,3.8428727 6.9227032,3.6393322 6.6833195,3.3999478 6.3519068,3.068522 6.0989229,2.9600489 5.3738387,2.965349 Z M 4.987299,3.1999601 c 0.3589726,-0.00158 0.7153082,0.010665 0.868164,0.039791 C 6.5610093,3.3741896 6.9337823,4.0293093 6.6347436,4.6096931 6.3930369,5.0788087 5.9842309,5.3012137 5.7872501,5.0711637 5.7426352,5.0190847 5.687517,4.9878393 5.664777,5.0019172 5.610929,5.0352012 4.9285549,5.1505211 4.5723372,5.1864021 4.4192844,5.2017951 3.907889,5.2177353 3.4359725,5.2210253 2.5385714,5.2278053 2.5949268,5.2367391 2.1461287,5.011219 2.0871264,4.9815722 1.9758822,4.8479486 1.8991154,4.7140795 1.6013527,4.1948291 1.7032197,3.7483258 2.200389,3.3921964 2.3669937,3.2728494 2.9939989,3.2265939 3.0339298,3.3307014 3.0602238,3.3992354 2.9589108,3.4444157 2.6975162,3.4795295 2.3373602,3.5278725 2.1373437,3.7623387 2.1373437,4.136337 c 0,0.3296931 0.1547185,0.5876568 0.4211629,0.7022827 C 2.9415383,5.0033951 3.1672652,4.9538136 3.5315739,4.6246793 3.7127217,4.4612679 3.7139917,4.4559649 3.7139917,4.1218676 3.7139917,3.8132315 3.7024011,3.7722224 3.5791162,3.6402433 3.5049563,3.5608513 3.3799869,3.4829032 3.301097,3.4671272 3.2222021,3.4513502 3.1574365,3.4221426 3.1574365,3.4025317 c 0,-0.0647 0.1425847,-0.091467 0.4816243,-0.091467 0.1841219,0 0.3545783,-0.019281 0.3787883,-0.042892 0.042239,-0.041105 0.5079133,-0.066184 0.9694499,-0.068213 z M 3.050983,3.6216397 c 0.035049,-0.00191 0.086351,0.016659 0.1741496,0.057878 0.2101298,0.098657 0.2498481,0.1721735 0.2542481,0.4743897 0.00294,0.1956599 -0.013508,0.231001 -0.168982,0.3591512 C 3.1592899,4.637604 3.1092916,4.6526074 2.9068058,4.6375984 2.717982,4.6236024 2.6518694,4.5942871 2.5455875,4.4753344 2.440171,4.3573621 2.4158797,4.286197 2.4158797,4.0996467 c 0,-0.1923129 0.018209,-0.2423124 0.1121378,-0.3038574 0.061818,-0.040509 0.1817905,-0.075841 0.2666504,-0.078031 0.084858,-0.00236 0.1754914,-0.031047 0.2010214,-0.064079 0.015195,-0.019695 0.031313,-0.030735 0.055294,-0.03204 z"/></g></svg>